<?xml version="1.0" encoding="UTF-8"?>
<svg version="1.1" xmlns="http://www.w3.org/2000/svg" width="1536" height="1024">
<path d="M0 0 C506.88 0 1013.76 0 1536 0 C1536 337.92 1536 675.84 1536 1024 C1029.12 1024 522.24 1024 0 1024 C0 686.08 0 348.16 0 0 Z " fill="#FCFCFC" transform="translate(0,0)"/>
<path d="M0 0 C0.98291519 -0.00274933 1.96583038 -0.00549866 2.97853088 -0.0083313 C4.57859482 0.00245453 4.57859482 0.00245453 6.21098328 0.01345825 C7.34312759 0.0131662 8.47527191 0.01287415 9.64172363 0.01257324 C13.38062731 0.01396562 17.11933125 0.02952278 20.85820007 0.04519653 C23.45180146 0.04892698 26.04540426 0.0517738 28.63900757 0.05377197 C34.76584117 0.06062578 40.89259245 0.07638577 47.01939505 0.09647095 C53.99639355 0.11884554 60.97339552 0.1298273 67.95042098 0.13986182 C82.29862533 0.16075248 96.64676953 0.19591871 110.99491882 0.24050903 C111.32491882 0.90050903 111.65491882 1.56050903 111.99491882 2.24050903 C111.12138367 4.15383911 111.12138367 4.15383911 109.70585632 6.51004028 C109.18322205 7.38781128 108.66058777 8.26558228 108.12211609 9.16995239 C107.54389099 10.12136108 106.96566589 11.07276978 106.36991882 12.05300903 C105.77815857 13.03986694 105.18639832 14.02672485 104.57670593 15.04348755 C99.56253385 23.37786363 94.44462506 31.64809835 89.30351257 39.90457153 C85.8680913 45.42938971 82.49248132 50.98967375 79.11991882 56.55300903 C73.6930262 65.49759789 68.17221747 74.37962063 62.61186218 83.24172974 C58.24727722 90.20861694 53.94654076 97.21173021 49.68241882 104.24050903 C45.58750468 110.98861137 41.48194791 117.72878344 37.30741882 124.42800903 C36.90934021 125.06931763 36.5112616 125.71062622 36.10112 126.37136841 C32.03565045 132.87043743 32.03565045 132.87043743 29.99491882 135.24050903 C29.33491882 135.24050903 28.67491882 135.24050903 27.99491882 135.24050903 C27.99491882 110.16050903 27.99491882 85.08050903 27.99491882 59.24050903 C4.23491882 59.24050903 -19.52508118 59.24050903 -44.00508118 59.24050903 C-42.69909271 55.97553786 -41.68415687 53.50223257 -39.89570618 50.62332153 C-39.47772766 49.94535522 -39.05974915 49.26738892 -38.62910461 48.56887817 C-38.17567688 47.84176636 -37.72224915 47.11465454 -37.25508118 46.36550903 C-36.2650967 44.76289218 -35.27553468 43.1600143 -34.28633118 41.55691528 C-33.75781555 40.70242798 -33.22929993 39.84794067 -32.68476868 38.96755981 C-29.1050393 33.15570267 -25.57748331 27.31178976 -22.04121399 21.47341919 C-20.93228019 19.64790877 -19.8180988 17.82557473 -18.69844055 16.00662231 C-17.51489787 14.07329783 -16.35104955 12.12784039 -15.2023468 10.1736145 C-14.6061554 9.18377563 -14.00996399 8.19393677 -13.39570618 7.17410278 C-12.86493469 6.27619019 -12.33416321 5.37827759 -11.78730774 4.45315552 C-8.65633743 0.56603444 -4.81187411 -0.0104266 0 0 Z " fill="#193047" transform="translate(339.0050811767578,386.7594909667969)"/>
<path d="M0 0 C0.99 0 1.98 0 3 0 C3.11612575 11.82249708 3.20483305 23.64485726 3.25906086 35.46780968 C3.28509468 40.95840046 3.3203792 46.44859948 3.37719727 51.93896484 C3.43173858 57.24284309 3.46146724 62.54634578 3.47438622 67.85048294 C3.48358645 69.86860689 3.50155222 71.88671154 3.52865028 73.90467453 C3.78644357 93.9075358 3.78644357 93.9075358 -2 102 C-2.73381358 103.21909507 -3.46269873 104.44119023 -4.18359375 105.66796875 C-4.93074473 106.84379387 -5.68221274 108.01688459 -6.4375 109.1875 C-7.31520517 110.56942235 -8.19141615 111.95229446 -9.06640625 113.3359375 C-9.77047607 114.4492041 -9.77047607 114.4492041 -10.48876953 115.58496094 C-13.33332902 120.13074163 -16.09727707 124.72569988 -18.875 129.3125 C-23.42077606 136.79425784 -27.98464705 144.26394814 -32.625 151.6875 C-33.10952637 152.4710083 -33.59405273 153.2545166 -34.09326172 154.06176758 C-34.54975098 154.78775146 -35.00624023 155.51373535 -35.4765625 156.26171875 C-35.86924316 156.89037842 -36.26192383 157.51903809 -36.66650391 158.16674805 C-38.33252175 160.4571413 -39.76282951 162.23271222 -42 164 C-45.17626953 164.48583984 -45.17626953 164.48583984 -48.8828125 164.4609375 C-49.53829071 164.46002106 -50.19376892 164.45910461 -50.86911011 164.4581604 C-52.2492399 164.45213722 -53.62935739 164.43642937 -55.00927734 164.41162109 C-57.12516189 164.3749972 -59.23929961 164.37060265 -61.35546875 164.37109375 C-71.70466861 164.29533139 -71.70466861 164.29533139 -74 162 C-74.18781638 159.28430734 -74.25557983 156.67256457 -74.23046875 153.95703125 C-74.23001053 153.1552092 -74.22955231 152.35338715 -74.2290802 151.52726746 C-74.22605543 149.82667567 -74.21816243 148.12608672 -74.20581055 146.42553711 C-74.18769432 143.84023041 -74.18529997 141.25528508 -74.18554688 138.66992188 C-74.1806259 137.01562194 -74.17479507 135.36132442 -74.16796875 133.70703125 C-74.16685593 132.94010452 -74.1657431 132.1731778 -74.16459656 131.38301086 C-74.10143316 124.11822271 -73.62751605 118.28680023 -69.5625 112.0625 C-68.82676876 110.91539932 -68.09109416 109.7682623 -67.35546875 108.62109375 C-66.77418213 107.72946533 -66.77418213 107.72946533 -66.18115234 106.81982422 C-64.2074498 103.7789026 -62.29392508 100.70066575 -60.375 97.625 C-59.96145264 96.96491943 -59.54790527 96.30483887 -59.12182617 95.62475586 C-54.88644525 88.85272688 -50.74371343 82.0250325 -46.59741211 75.19824219 C-39.44877906 63.43440177 -32.22757999 51.71545023 -25 40 C-24.11948975 38.57179932 -24.11948975 38.57179932 -23.22119141 37.11474609 C-20.01582031 31.91717017 -16.79921178 26.72680479 -13.57324219 21.54199219 C-11.91396805 18.86099245 -10.2730352 16.16925354 -8.6328125 13.4765625 C-7.5472088 11.7133361 -6.46128329 9.9503078 -5.375 8.1875 C-4.62911621 6.94915405 -4.62911621 6.94915405 -3.86816406 5.68579102 C-3.4037793 4.93740967 -2.93939453 4.18902832 -2.4609375 3.41796875 C-1.85451416 2.42446411 -1.85451416 2.42446411 -1.23583984 1.41088867 C-0.8280127 0.94529541 -0.42018555 0.47970215 0 0 Z " fill="#7CAA59" transform="translate(441,455)"/>
<path d="M0 0 C1.10083923 0.00015106 2.20167847 0.00030212 3.33587646 0.00045776 C4.51828918 0.01078033 5.7007019 0.02110291 6.91894531 0.03173828 C8.74162933 0.03598312 8.74162933 0.03598312 10.60113525 0.04031372 C14.48321366 0.05151124 18.3650616 0.07661544 22.24707031 0.10205078 C24.8785774 0.11208112 27.5100881 0.12120687 30.14160156 0.12939453 C36.59350315 0.15144921 43.04527027 0.18492274 49.49707031 0.22705078 C49.49707031 4.77239818 48.64989611 6.10038178 46.30566406 9.89892578 C45.80036919 10.72593742 45.80036919 10.72593742 45.28486633 11.56965637 C44.17695307 13.37774092 43.0563232 15.17752519 41.93457031 16.97705078 C41.16284289 18.22661844 40.39168984 19.47654099 39.62109375 20.72680664 C38.03679785 23.29414586 36.44698494 25.85796399 34.85400391 28.41992188 C32.96299061 31.46621537 31.09608726 34.52620799 29.24134827 37.59469604 C27.58539932 40.33168779 25.91493976 43.05981217 24.24707031 45.78955078 C23.3371936 47.30403809 23.3371936 47.30403809 22.40893555 48.84912109 C21.83473877 49.77950195 21.26054199 50.70988281 20.66894531 51.66845703 C20.17491211 52.48000244 19.68087891 53.29154785 19.171875 54.12768555 C16.58354667 57.37215133 13.91085445 59.04003384 9.76982117 59.58781433 C8.78609024 59.5811525 7.80235931 59.57449066 6.78881836 59.56762695 C5.66803391 59.56740036 4.54724945 59.56717377 3.39250183 59.56694031 C2.19337662 59.55145645 0.9942514 59.5359726 -0.24121094 59.52001953 C-1.47711472 59.51577469 -2.71301849 59.51152985 -3.9863739 59.50715637 C-7.25969051 59.49322858 -10.53255876 59.46631055 -13.8057251 59.43304443 C-17.15071484 59.40226325 -20.49572415 59.38888996 -23.84082031 59.37353516 C-30.3950315 59.34047721 -36.94894394 59.29028542 -43.50292969 59.22705078 C-42.1383367 55.72167035 -40.6453877 52.64975665 -38.62402344 49.47314453 C-38.04048096 48.54904785 -37.45693848 47.62495117 -36.85571289 46.67285156 C-36.22366943 45.6801123 -35.59162598 44.68737305 -34.94042969 43.66455078 C-30.50108364 36.65229636 -26.11364188 29.6212728 -21.87011719 22.48876953 C-21.10263368 21.20368676 -20.33513704 19.91861182 -19.56762695 18.63354492 C-18.44405405 16.75114681 -17.32419189 14.86698932 -16.21505737 12.9760437 C-15.18063058 11.21308368 -14.13401889 9.45789415 -13.08496094 7.70361328 C-12.48917236 6.69379395 -11.89338379 5.68397461 -11.27954102 4.64355469 C-8.16143692 0.40238465 -5.10200181 -0.02340368 0 0 Z " fill="#4896C0" transform="translate(490.5029296875,386.77294921875)"/>
<path d="M0 0 C4.62 0 9.24 0 14 0 C14.26216309 1.13018555 14.52432617 2.26037109 14.79443359 3.42480469 C15.76965691 7.6229401 16.75150638 11.81950254 17.73535156 16.015625 C18.16000993 17.83095849 18.58287708 19.64671198 19.00390625 21.46289062 C19.60985923 24.07534827 20.22226595 26.68622115 20.8359375 29.296875 C21.02247894 30.10743347 21.20902039 30.91799194 21.4012146 31.75311279 C21.58125031 32.51359924 21.76128601 33.27408569 21.94677734 34.05761719 C22.10222015 34.72380066 22.25766296 35.38998413 22.41781616 36.07635498 C23.05937792 38.19619582 23.9602896 40.04828855 25 42 C25.15033691 41.4738208 25.30067383 40.9476416 25.45556641 40.40551758 C29.30371094 26.93701172 33.15185547 13.46850586 37 0 C41.62 0 46.24 0 51 0 C54.39595636 9.79975979 57.28390887 19.58998793 59.86328125 29.6328125 C61.10738764 34.46580724 62.51590817 39.23528414 64 44 C67.46495871 29.81276657 67.46495871 29.81276657 70.45703125 15.5234375 C71.47280758 10.05641366 72.90049878 5.15332117 75 0 C79.29 0 83.58 0 88 0 C87.43399943 7.34271015 85.75844095 13.96493439 83.625 21 C83.32078125 22.02867187 83.0165625 23.05734375 82.703125 24.1171875 C81.34453017 28.68067268 79.94281024 33.21977212 78.40625 37.7265625 C76.99743707 41.89379166 75.89709794 46.09854221 74.875 50.375 C73.10472973 57.68581081 73.10472973 57.68581081 72 61 C66.72 61 61.44 61 56 61 C55.66226563 59.77023437 55.32453125 58.54046875 54.9765625 57.2734375 C54.52612511 55.64060198 54.07559962 54.00779076 53.625 52.375 C53.40328125 51.56675781 53.1815625 50.75851562 52.953125 49.92578125 C51.74934955 45.57094652 50.4520044 41.27990006 49 37 C48.27589885 34.65063533 47.56798897 32.29622913 46.875 29.9375 C46.34519531 28.15666016 46.34519531 28.15666016 45.8046875 26.33984375 C45.0933526 23.38745862 44.82916917 21.01231697 45 18 C44.34 18 43.68 18 43 18 C42.89300781 19.30839844 42.78601563 20.61679687 42.67578125 21.96484375 C42.13784844 26.78739724 40.83984253 31.02033749 39.1875 35.5625 C36.25320329 43.95455318 34.04511225 52.347602 32 61 C26.39 61 20.78 61 15 61 C14.72027344 59.7625 14.44054687 58.525 14.15234375 57.25 C11.38775229 45.23095626 8.17622745 33.40256688 4.6484375 21.5859375 C4.09711861 19.72450223 3.54764683 17.86251892 3 16 C2.7102832 15.01676758 2.42056641 14.03353516 2.12207031 13.02050781 C1.84717773 12.05725586 1.57228516 11.09400391 1.2890625 10.1015625 C1.0410791 9.24127441 0.7930957 8.38098633 0.53759766 7.49462891 C0 5 0 5 0 0 Z " fill="#80AE60" transform="translate(948,443)"/>
<path d="M0 0 C31.66666667 0 31.66666667 0 41.5625 6.25 C45.85695293 11.09502382 47.62326843 16.50617324 47.35546875 22.984375 C46.36463432 28.60273287 43.33986897 33.3601099 39 37 C38.01 37.66 37.02 38.32 36 39 C36.86372776 40.40596877 37.72754802 41.81188079 38.59179688 43.2175293 C39.32407503 44.4087866 40.05584349 45.60035736 40.78710938 46.79223633 C42.82658385 50.11181611 44.89648954 53.40796352 47 56.6875 C49 60 49 60 49 62 C43.89951756 63.25421699 38.89905098 64.25316487 34 62 C29.21140651 57.10367244 22 47.08884693 22 40 C18.7 40 15.4 40 12 40 C12 47.26 12 54.52 12 62 C8.04 62 4.08 62 0 62 C0 41.54 0 21.08 0 0 Z " fill="#1B3148" transform="translate(724,442)"/>
<path d="M0 0 C4.29 0 8.58 0 13 0 C13 20.46 13 40.92 13 62 C8.38 62 3.76 62 -1 62 C-1 53.75 -1 45.5 -1 37 C-9.25 37 -17.5 37 -26 37 C-26 45.25 -26 53.5 -26 62 C-30.29 62 -34.58 62 -39 62 C-39 41.87 -39 21.74 -39 1 C-34.71 1 -30.42 1 -26 1 C-26 8.92 -26 16.84 -26 25 C-17.75 25 -9.5 25 -1 25 C-1.03958993 17.14657221 -1.03958993 17.14657221 -1.09008789 9.29321289 C-1.09258545 8.3211792 -1.09508301 7.34914551 -1.09765625 6.34765625 C-1.10289307 5.34742432 -1.10812988 4.34719238 -1.11352539 3.31665039 C-1 1 -1 1 0 0 Z " fill="#1F3349" transform="translate(696,442)"/>
<path d="M0 0 C1.93166016 0.01740234 1.93166016 0.01740234 3.90234375 0.03515625 C5.19269531 0.04417969 6.48304688 0.05320312 7.8125 0.0625 C8.81152344 0.07410156 9.81054688 0.08570313 10.83984375 0.09765625 C11.18128418 0.96640381 11.52272461 1.83515137 11.87451172 2.73022461 C13.19117646 6.07922864 14.50857225 9.42794357 15.82632446 12.77651978 C16.41743768 14.27914317 17.00823898 15.7818893 17.59872437 17.28475952 C20.67321052 25.10960086 23.75854662 32.92858813 26.9296875 40.71484375 C27.39197754 41.8531665 27.85426758 42.99148926 28.33056641 44.16430664 C29.19549144 46.28827752 30.0660428 48.40996808 30.94287109 50.52905273 C31.32781738 51.47594971 31.71276367 52.42284668 32.109375 53.3984375 C32.44557861 54.21481689 32.78178223 55.03119629 33.12817383 55.87231445 C33.83984375 58.09765625 33.83984375 58.09765625 33.83984375 62.09765625 C29.21984375 62.09765625 24.59984375 62.09765625 19.83984375 62.09765625 C15.83984375 51.47265625 15.83984375 51.47265625 15.83984375 48.09765625 C7.91984375 48.09765625 -0.00015625 48.09765625 -8.16015625 48.09765625 C-8.49015625 49.41765625 -8.82015625 50.73765625 -9.16015625 52.09765625 C-10.13700061 55.43816028 -11.15201065 58.76639253 -12.16015625 62.09765625 C-16.78015625 62.09765625 -21.40015625 62.09765625 -26.16015625 62.09765625 C-25.60048195 54.07565799 -22.17327204 46.85910092 -19.07519531 39.53149414 C-15.36779373 30.74153109 -11.9986245 21.83831377 -8.66064453 12.90405273 C-7.93876743 10.97424721 -7.21367614 9.04567288 -6.48828125 7.1171875 C-6.06450195 5.98385986 -5.64072266 4.85053223 -5.20410156 3.68286133 C-3.76387468 0.11631257 -3.76387468 0.11631257 0 0 Z " fill="#1B3147" transform="translate(859.16015625,441.90234375)"/>
<path d="M0 0 C4.95 0 9.9 0 15 0 C15.68964844 1.76601563 16.37929687 3.53203125 17.08984375 5.3515625 C18.03860194 7.77622331 18.98772725 10.20073675 19.9375 12.625 C20.18443604 13.25548248 20.43137207 13.88596497 20.68579102 14.53555298 C24.39486018 23.99791467 28.1757821 33.42678012 32.09350586 42.80517578 C38 57.05066106 38 57.05066106 38 61 C33.38 61 28.76 61 24 61 C20 50.375 20 50.375 20 47 C12.08 47.33 4.16 47.66 -4 48 C-5.32 52.29 -6.64 56.58 -8 61 C-12.62 61 -17.24 61 -22 61 C-20.65006288 52.7219373 -18.03380616 45.43860101 -14.875 37.6875 C-14.13346425 35.8367228 -13.39193923 33.98594077 -12.65200806 32.13452148 C-11.91039338 30.27989301 -11.16614134 28.42631985 -10.421875 26.57275391 C-7.99858976 20.48375044 -5.6864646 14.35335742 -3.37451172 8.22143555 C-3.07303223 7.42390869 -2.77155273 6.62638184 -2.4609375 5.8046875 C-2.07107666 4.76803955 -2.07107666 4.76803955 -1.67333984 3.71044922 C-1 2 -1 2 0 0 Z " fill="#80AD5F" transform="translate(1058,443)"/>
<path d="M0 0 C4.29 0 8.58 0 13 0 C13.33 7.92 13.66 15.84 14 24 C22.25 24.33 30.5 24.66 39 25 C39 16.75 39 8.5 39 0 C43.29 0 47.58 0 52 0 C52 20.13 52 40.26 52 61 C47.71 61 43.42 61 39 61 C39 52.75 39 44.5 39 36 C30.42 36 21.84 36 13 36 C13 44.25 13 52.5 13 61 C8.71 61 4.42 61 0 61 C0 40.87 0 20.74 0 0 Z " fill="#7EAD5C" transform="translate(1205,443)"/>
<path d="M0 0 C13.53 0 27.06 0 41 0 C41 3.63 41 7.26 41 11 C32.09 11 23.18 11 14 11 C14 15.95 14 20.9 14 26 C21.92 26 29.84 26 38 26 C38 29.63 38 33.26 38 37 C30.08 37 22.16 37 14 37 C14 41.95 14 46.9 14 52 C23.24 52 32.48 52 42 52 C42 55.63 42 59.26 42 63 C28.14 63 14.28 63 0 63 C0 42.21 0 21.42 0 0 Z " fill="#22374D" transform="translate(784,442)"/>
<path d="M0 0 C0.78632812 -0.020625 1.57265625 -0.04125 2.3828125 -0.0625 C7.77132374 -0.09830406 11.4407673 0.80680692 16.25 3.25 C15.79177532 6.71941546 15.35868317 9.92395049 14.25 13.25 C13.404375 13.09144531 12.55875 12.93289063 11.6875 12.76953125 C4.70971406 11.71493406 -2.68550073 11.01344766 -9.3125 13.6875 C-14.3394645 18.97225755 -17.03620437 23.78468256 -17.3125 31.1875 C-17.03528472 37.05397479 -15.84383727 42.21418487 -12.75 47.25 C-6.65721168 52.56498555 -0.45700862 52.58175865 7.25 52.25 C9.93500019 51.99216886 12.5793387 51.63845983 15.25 51.25 C15.745 55.705 15.745 55.705 16.25 60.25 C13.02208445 62.4019437 11.96599191 62.45086443 8.25 62.25 C8.25 62.91 8.25 63.57 8.25 64.25 C-3.06306172 64.59988851 -12.16930326 64.38376265 -21.484375 57.3828125 C-25.20351442 53.88169159 -27.56873034 49.83361394 -29.75 45.25 C-30.31074219 44.10144531 -30.31074219 44.10144531 -30.8828125 42.9296875 C-33.14223836 35.94785803 -32.95600767 25.99723495 -30.125 19.25 C-29.37920449 17.89047694 -28.58707067 16.55530708 -27.75 15.25 C-27.3375 14.55519531 -26.925 13.86039062 -26.5 13.14453125 C-20.21331844 3.62520946 -11.0215101 0.07087788 0 0 Z " fill="#81AF61" transform="translate(1177.75,441.75)"/>
<path d="M0 0 C16.83 0 33.66 0 51 0 C51 3.63 51 7.26 51 11 C44.73 11 38.46 11 32 11 C32 27.83 32 44.66 32 62 C27.71 62 23.42 62 19 62 C19 45.5 19 29 19 12 C12.73 12 6.46 12 0 12 C0 8.04 0 4.08 0 0 Z " fill="#1F354B" transform="translate(890,442)"/>
<path d="M0 0 C16.83 0 33.66 0 51 0 C51 3.3 51 6.6 51 10 C44.73 10 38.46 10 32 10 C32 26.83 32 43.66 32 61 C27.71 61 23.42 61 19 61 C19 44.17 19 27.34 19 10 C12.73 10 6.46 10 0 10 C0 6.7 0 3.4 0 0 Z " fill="#7BAB5C" transform="translate(1092,443)"/>
<path d="M0 0 C16.5 0 33 0 50 0 C50 3.3 50 6.6 50 10 C44.06 10 38.12 10 32 10 C32 26.83 32 43.66 32 61 C27.71 61 23.42 61 19 61 C19 44.17 19 27.34 19 10 C12.73 10 6.46 10 0 10 C0 6.7 0 3.4 0 0 Z " fill="#152B42" transform="translate(597,443)"/>
<path d="M0 0 C4.84534827 2.33294546 7.7343461 5.12013007 10 10 C11.01315621 16.20121474 11.0034336 21.40448829 7.25 26.625 C4.40498879 30.0303922 1.84022963 31.73591871 -2.5859375 32.37109375 C-11.0524394 32.57267713 -11.0524394 32.57267713 -14.5 30 C-18.67249577 24.99300508 -20.69019274 19.59179615 -20.41796875 13.01953125 C-19.39964057 8.09919791 -16.45376317 4.3291549 -12.8125 1 C-8.50641427 -0.5310527 -4.51255311 -0.64465044 0 0 Z " fill="#F8F8F8" transform="translate(874,540)"/>
<path d="M0 0 C1.65 0 3.3 0 5 0 C5 10.56 5 21.12 5 32 C3.35 32 1.7 32 0 32 C-1.94458008 29.98046875 -1.94458008 29.98046875 -3.76953125 27.1875 C-4.43017578 26.19492187 -5.09082031 25.20234375 -5.77148438 24.1796875 C-6.44501953 23.13039063 -7.11855469 22.08109375 -7.8125 21 C-8.50537109 19.95070313 -9.19824219 18.90140625 -9.91210938 17.8203125 C-11.62353496 15.22366678 -13.31379213 12.61309195 -15 10 C-15.33 17.26 -15.66 24.52 -16 32 C-17.32 32 -18.64 32 -20 32 C-20 21.77 -20 11.54 -20 1 C-15 1 -15 1 -13.25488281 2.62060547 C-12.74280273 3.36197754 -12.23072266 4.10334961 -11.703125 4.8671875 C-11.13722656 5.67027344 -10.57132813 6.47335937 -9.98828125 7.30078125 C-9.41464844 8.15027344 -8.84101562 8.99976563 -8.25 9.875 C-7.66089844 10.71675781 -7.07179688 11.55851563 -6.46484375 12.42578125 C-2.28268495 18.4346301 -2.28268495 18.4346301 -1 21 C-0.67 14.07 -0.34 7.14 0 0 Z " fill="#7F7E7F" transform="translate(995,540)"/>
<path d="M0 0 C1.65 0 3.3 0 5 0 C5 10.56 5 21.12 5 32 C3.02 32 1.04 32 -1 32 C-1.25652344 31.50113281 -1.51304688 31.00226562 -1.77734375 30.48828125 C-5.64041119 23.24340393 -10.27246608 16.70321974 -15 10 C-15.33 17.26 -15.66 24.52 -16 32 C-17.32 32 -18.64 32 -20 32 C-20 21.77 -20 11.54 -20 1 C-15 1 -15 1 -13.1472168 2.8359375 C-12.58687744 3.67382812 -12.02653809 4.51171875 -11.44921875 5.375 C-10.83369141 6.27734375 -10.21816406 7.1796875 -9.58398438 8.109375 C-8.95814453 9.06328125 -8.33230469 10.0171875 -7.6875 11 C-7.04232422 11.95390625 -6.39714844 12.9078125 -5.73242188 13.890625 C-4.13970803 16.25020107 -2.56784844 18.62382915 -1 21 C-0.67 14.07 -0.34 7.14 0 0 Z " fill="#828282" transform="translate(1083,540)"/>
<path d="M0 0 C5 0 5 0 6.7734375 1.58203125 C7.56621094 2.68611328 7.56621094 2.68611328 8.375 3.8125 C9.25478516 5.03066406 9.25478516 5.03066406 10.15234375 6.2734375 C19 19.32980973 19 19.32980973 19 22 C19.66 22 20.32 22 21 22 C21 14.74 21 7.48 21 0 C22.32 0 23.64 0 25 0 C25 10.23 25 20.46 25 31 C23.35 31 21.7 31 20 31 C18.1472168 29.07226562 18.1472168 29.07226562 16.44921875 26.40625 C15.83369141 25.45878906 15.21816406 24.51132812 14.58398438 23.53515625 C13.95814453 22.53355469 13.33230469 21.53195312 12.6875 20.5 C11.71973633 18.99759766 11.71973633 18.99759766 10.73242188 17.46484375 C9.13925349 14.98658182 7.56756825 12.49453351 6 10 C5.67 16.93 5.34 23.86 5 31 C3.35 31 1.7 31 0 31 C0 20.77 0 10.54 0 0 Z " fill="#808080" transform="translate(624,541)"/>
<path d="M0 0 C1.65 0 3.3 0 5 0 C6.7734375 1.8359375 6.7734375 1.8359375 8.375 4.375 C8.9628125 5.27992188 9.550625 6.18484375 10.15625 7.1171875 C10.7646875 8.06851563 11.373125 9.01984375 12 10 C13.28368554 11.83893048 14.57501196 13.6725578 15.875 15.5 C18.87692308 19.75384615 18.87692308 19.75384615 20 22 C20.33 15.07 20.66 8.14 21 1 C22.32 1 23.64 1 25 1 C25 11.23 25 21.46 25 32 C20 31 20 31 18.2265625 28.84765625 C17.69804688 27.92855469 17.16953125 27.00945313 16.625 26.0625 C13.31852218 20.51052406 9.74149104 15.26863025 6 10 C5.67 17.26 5.34 24.52 5 32 C3.35 32 1.7 32 0 32 C0 21.44 0 10.88 0 0 Z " fill="#807F80" transform="translate(893,540)"/>
<path d="M0 0 C4.84534827 2.33294546 7.7343461 5.12013007 10 10 C11.01315621 16.20121474 11.0034336 21.40448829 7.25 26.625 C4.40498879 30.0303922 1.84022963 31.73591871 -2.5859375 32.37109375 C-11.0524394 32.57267713 -11.0524394 32.57267713 -14.5 30 C-18.67249577 24.99300508 -20.69019274 19.59179615 -20.41796875 13.01953125 C-19.39964057 8.09919791 -16.45376317 4.3291549 -12.8125 1 C-8.50641427 -0.5310527 -4.51255311 -0.64465044 0 0 Z M-11.875 6.3125 C-15.25718632 10.58997093 -15.57139116 14.69708905 -15 20 C-13.43564712 24.0226217 -12.61276337 25.59149109 -9 28 C-5.9830912 28.34061873 -3.90592185 28.57212107 -1 28 C2.42616114 25.22991227 4.77138419 23.02814885 5.2734375 18.57421875 C5.5808307 12.27435041 5.5808307 12.27435041 2.625 6.875 C-2.3454988 3.32464372 -6.79468326 2.22615827 -11.875 6.3125 Z " fill="#7E7E7F" transform="translate(874,540)"/>
<path d="M0 0 C0 1.32 0 2.64 0 4 C-0.88042969 3.94199219 -1.76085938 3.88398437 -2.66796875 3.82421875 C-9.77136066 3.46432952 -9.77136066 3.46432952 -16.3125 5.8125 C-18.80841473 10.52700561 -18.73735398 14.77576862 -18 20 C-16.62747293 23.11937969 -16.020457 24.4897715 -13 26 C-11.29636178 26.22622081 -9.58671299 26.40888473 -7.875 26.5625 C-6.96492188 26.64628906 -6.05484375 26.73007812 -5.1171875 26.81640625 C-4.41851563 26.87699219 -3.71984375 26.93757812 -3 27 C-3 24.03 -3 21.06 -3 18 C-4.98 18 -6.96 18 -9 18 C-9 16.68 -9 15.36 -9 14 C-5.37 14 -1.74 14 2 14 C2 18.95 2 23.9 2 29 C-3.64536574 31.82268287 -8.78251208 31.62638871 -15 31 C-19.64386908 28.83819888 -21.74529019 26.5284735 -24 22 C-24.83011748 16.55597374 -25.29586475 10.65220319 -22.828125 5.6015625 C-16.87832552 -1.66700696 -8.71775442 -2.47101883 0 0 Z " fill="#79797A" transform="translate(1034,541)"/>
<path d="M0 0 C12.00386598 -0.44458763 12.00386598 -0.44458763 18 3 C20.4915904 6.7373856 20.45793285 8.57331583 20 13 C17.86320715 16.38939556 16.8225233 17.72582557 13 19 C8.66328697 19.13501597 4.33988266 19.04296914 0 19 C0 12.73 0 6.46 0 0 Z " fill="#F9F9FA" transform="translate(737,453)"/>
<path d="M0 0 C1.32 0 2.64 0 4 0 C4.02187378 0.96824707 4.02187378 0.96824707 4.04418945 1.95605469 C4.1187787 4.88796573 4.2154024 7.81875165 4.3125 10.75 C4.33505859 11.76578125 4.35761719 12.7815625 4.38085938 13.828125 C4.41630859 14.8078125 4.45175781 15.7875 4.48828125 16.796875 C4.51446533 17.69760742 4.54064941 18.59833984 4.56762695 19.52636719 C5.08232327 22.47097651 5.90820347 23.87937413 8 26 C11.68687259 26.53627238 13.95399767 26.63849335 17.17578125 24.671875 C20.10863929 20.37621141 19.67901589 15.83504346 19.75 10.75 C19.79447266 9.203125 19.79447266 9.203125 19.83984375 7.625 C19.91044778 5.08325505 19.96319009 2.54242217 20 0 C21.65 0 23.3 0 25 0 C25.1174875 3.33303003 25.18767324 6.66551837 25.25 10 C25.30027344 11.40185547 25.30027344 11.40185547 25.3515625 12.83203125 C25.43616273 18.88094778 24.91800477 24.14130877 21 29 C17.85027583 30.89053427 15.29470049 31.40317127 11.625 31.5625 C10.70976563 31.62566406 9.79453125 31.68882812 8.8515625 31.75390625 C5.14875191 30.774944 3.50719407 29.30764549 1.16455078 26.31958008 C-1.17513704 21.65933397 -0.61059202 16.6518918 -0.375 11.5625 C-0.34792969 10.44939453 -0.32085938 9.33628906 -0.29296875 8.18945312 C-0.22262083 5.4576088 -0.12424271 2.72983536 0 0 Z " fill="#7D7D7E" transform="translate(775,541)"/>
<path d="M0 0 C6.6 0 13.2 0 20 0 C20 1.32 20 2.64 20 4 C14.72 4 9.44 4 4 4 C4 7.3 4 10.6 4 14 C8.62 14 13.24 14 18 14 C18 15.32 18 16.64 18 18 C13.38 18 8.76 18 4 18 C4.33 20.97 4.66 23.94 5 27 C9.95 27.33 14.9 27.66 20 28 C20 29.32 20 30.64 20 32 C13.4 32 6.8 32 0 32 C0 21.44 0 10.88 0 0 Z " fill="#808080" transform="translate(1099,540)"/>
<path d="M0 0 C6.6 0 13.2 0 20 0 C20 0.99 20 1.98 20 3 C15.05 3 10.1 3 5 3 C5 6.3 5 9.6 5 13 C9.29 13 13.58 13 18 13 C18 14.32 18 15.64 18 17 C13.71 17 9.42 17 5 17 C5 20.3 5 23.6 5 27 C9.95 27 14.9 27 20 27 C20 28.32 20 29.64 20 31 C13.4 31 6.8 31 0 31 C0 20.77 0 10.54 0 0 Z " fill="#818282" transform="translate(689,541)"/>
<path d="M0 0 C0.66 0.33 1.32 0.66 2 1 C2 2.32 2 3.64 2 5 C1.14535156 4.98839844 0.29070313 4.97679687 -0.58984375 4.96484375 C-2.24693359 4.95130859 -2.24693359 4.95130859 -3.9375 4.9375 C-5.59072266 4.92009766 -5.59072266 4.92009766 -7.27734375 4.90234375 C-9.91447634 4.68737429 -9.91447634 4.68737429 -11 6 C-11.04063832 7.66617115 -11.042721 9.33388095 -11 11 C-9.75283203 11.50660156 -9.75283203 11.50660156 -8.48046875 12.0234375 C-7.39378906 12.46945312 -6.30710937 12.91546875 -5.1875 13.375 C-4.10855469 13.81585937 -3.02960937 14.25671875 -1.91796875 14.7109375 C1 16 1 16 4 18 C4.76498716 21.40389636 4.64527295 24.58060487 4 28 C1.24292313 31.21658968 -0.78409517 31.89266716 -4.96484375 32.26171875 C-9.22614908 32.32886659 -12.93764133 32.35411956 -17 31 C-16.67 29.35 -16.34 27.7 -16 26 C-15.01 26.33 -14.02 26.66 -13 27 C-11.31454276 27.09287771 -9.625507 27.12997204 -7.9375 27.125 C-6.62072266 27.12886719 -6.62072266 27.12886719 -5.27734375 27.1328125 C-2.96801734 27.14833424 -2.96801734 27.14833424 -1 26 C-1 24.35 -1 22.7 -1 21 C-1.81984375 20.69707031 -2.6396875 20.39414062 -3.484375 20.08203125 C-4.56203125 19.66308594 -5.6396875 19.24414062 -6.75 18.8125 C-7.81734375 18.40644531 -8.8846875 18.00039063 -9.984375 17.58203125 C-13.36255389 15.8098001 -14.96785264 14.20813578 -17 11 C-17.07188342 6.90264497 -16.62945239 4.81828811 -14.125 1.5625 C-9.51569819 -0.74215091 -5.06769661 -0.49779306 0 0 Z " fill="#777777" transform="translate(826,540)"/>
<path d="M0 0 C6.27 0 12.54 0 19 0 C19 0.99 19 1.98 19 3 C14.05 3 9.1 3 4 3 C4 6.3 4 9.6 4 13 C8.62 13 13.24 13 18 13 C18 14.32 18 15.64 18 17 C13.38 17 8.76 17 4 17 C4 20.3 4 23.6 4 27 C9.28 27 14.56 27 20 27 C20 28.32 20 29.64 20 31 C13.4 31 6.8 31 0 31 C0 20.77 0 10.54 0 0 Z " fill="#727272" transform="translate(945,541)"/>
<path d="M0 0 C6.6 0 13.2 0 20 0 C20 1.32 20 2.64 20 4 C15.05 4 10.1 4 5 4 C5 7.3 5 10.6 5 14 C9.29 14 13.58 14 18 14 C18 15.32 18 16.64 18 18 C13.71 18 9.42 18 5 18 C5 22.62 5 27.24 5 32 C3.35 32 1.7 32 0 32 C0 21.44 0 10.88 0 0 Z " fill="#818181" transform="translate(746,540)"/>
<path d="M0 0 C8.25 0 16.5 0 25 0 C25 1.32 25 2.64 25 4 C21.7 4 18.4 4 15 4 C15 13.24 15 22.48 15 32 C13.35 32 11.7 32 10 32 C10 23.09 10 14.18 10 5 C6.7 5 3.4 5 0 5 C0 3.35 0 1.7 0 0 Z " fill="#888889" transform="translate(656,540)"/>
<path d="M0 0 C1.65 0 3.3 0 5 0 C5 8.91 5 17.82 5 27 C9.62 27 14.24 27 19 27 C19 28.32 19 29.64 19 31 C12.73 31 6.46 31 0 31 C0 20.77 0 10.54 0 0 Z " fill="#919091" transform="translate(719,541)"/>
<path d="M0 0 C1.64217885 2.46326827 2.5296304 4.18245703 3.47265625 6.90625 C3.86227539 8.02193359 3.86227539 8.02193359 4.25976562 9.16015625 C4.52466797 9.93230469 4.78957031 10.70445312 5.0625 11.5 C5.33126953 12.27214844 5.60003906 13.04429687 5.87695312 13.83984375 C6.9359946 16.88755911 7.97968993 19.9390698 9 23 C3.39 23 -2.22 23 -8 23 C-1.75 1.75 -1.75 1.75 0 0 Z " fill="#F0F5EE" transform="translate(1065,457)"/>
<path d="M0 0 C2.13893584 2.13893584 2.70116923 3.47909268 3.7265625 6.28125 C4.0359375 7.12300781 4.3453125 7.96476562 4.6640625 8.83203125 C4.98117187 9.71246094 5.29828125 10.59289062 5.625 11.5 C5.94984375 12.38042969 6.2746875 13.26085937 6.609375 14.16796875 C9 20.72712054 9 20.72712054 9 23 C3.72 23 -1.56 23 -7 23 C-5.48526781 15.01323028 -2.83197448 7.59877122 0 0 Z " fill="#EDEFF1" transform="translate(862,457)"/>
<path d="M0 0 C1.65 0 3.3 0 5 0 C7.01953125 2.1875 7.01953125 2.1875 8.8125 5 C9.41707031 5.928125 10.02164063 6.85625 10.64453125 7.8125 C11.09183594 8.534375 11.53914062 9.25625 12 10 C10.68 10.99 9.36 11.98 8 13 C7.01 11.68 6.02 10.36 5 9 C4.67 16.26 4.34 23.52 4 31 C2.68 31 1.36 31 0 31 C0 20.77 0 10.54 0 0 Z " fill="#797979" transform="translate(975,541)"/>
<path d="M0 0 C1.32 0 2.64 0 4 0 C4 10.23 4 20.46 4 31 C-1 31 -1 31 -2.6171875 29.390625 C-3.23980469 28.33101562 -3.23980469 28.33101562 -3.875 27.25 C-4.30554688 26.55390625 -4.73609375 25.8578125 -5.1796875 25.140625 C-6.14212859 22.62911206 -5.90718979 21.48637202 -5 19 C-4.01 19.33 -3.02 19.66 -2 20 C-2 20.66 -2 21.32 -2 22 C-1.34 22 -0.68 22 0 22 C0 14.74 0 7.48 0 0 Z " fill="#757576" transform="translate(645,541)"/>
<path d="M0 0 C1.65 0 3.3 0 5 0 C5 10.56 5 21.12 5 32 C3.35 32 1.7 32 0 32 C0 21.44 0 10.88 0 0 Z " fill="#858585" transform="translate(1046,540)"/>
<path d="M0 0 C1.65 0 3.3 0 5 0 C5 10.56 5 21.12 5 32 C3.35 32 1.7 32 0 32 C0 21.44 0 10.88 0 0 Z " fill="#858686" transform="translate(840,540)"/>
<path d="M0 0 C1.65 0 3.3 0 5 0 C5 10.23 5 20.46 5 31 C3.35 31 1.7 31 0 31 C0 20.77 0 10.54 0 0 Z " fill="#727272" transform="translate(607,541)"/>
<path d="M0 0 C1.32 0 2.64 0 4 0 C4.02187378 0.96824707 4.02187378 0.96824707 4.04418945 1.95605469 C4.1187787 4.88796573 4.2154024 7.81875165 4.3125 10.75 C4.33505859 11.76578125 4.35761719 12.7815625 4.38085938 13.828125 C4.41630859 14.8078125 4.45175781 15.7875 4.48828125 16.796875 C4.51446533 17.69760742 4.54064941 18.59833984 4.56762695 19.52636719 C5.07747669 22.44324892 5.98517505 23.85558073 8 26 C10.26300895 26.6921369 10.26300895 26.6921369 12.6875 26.75 C13.49574219 26.80671875 14.30398438 26.8634375 15.13671875 26.921875 C15.75160156 26.94765625 16.36648438 26.9734375 17 27 C16.67 27.99 16.34 28.98 16 30 C14.27402225 30.16322732 12.54351663 30.27895945 10.8125 30.375 C9.84957031 30.44460938 8.88664063 30.51421875 7.89453125 30.5859375 C4.5913171 29.91727067 2.94763607 28.81621889 0.9309082 26.09912109 C-1.08835353 21.5458527 -0.49921951 16.50268825 -0.3125 11.625 C-0.28994141 10.50738281 -0.26738281 9.38976562 -0.24414062 8.23828125 C-0.18543378 5.4908011 -0.10336846 2.74610239 0 0 Z " fill="#7A7A7A" transform="translate(775,541)"/>
<path d="M0 0 C0.66 0.33 1.32 0.66 2 1 C2 2.32 2 3.64 2 5 C1.14535156 4.98839844 0.29070313 4.97679687 -0.58984375 4.96484375 C-2.24693359 4.95130859 -2.24693359 4.95130859 -3.9375 4.9375 C-5.59072266 4.92009766 -5.59072266 4.92009766 -7.27734375 4.90234375 C-9.91447634 4.68737429 -9.91447634 4.68737429 -11 6 C-11.2500773 8.45809998 -11.2500773 8.45809998 -11 11 C-10.34 11.66 -9.68 12.32 -9 13 C-9.99 14.485 -9.99 14.485 -11 16 C-14.16115776 14.63016497 -14.9927092 14.0109362 -17 11 C-16.92754653 7.01505924 -16.57324853 4.74522308 -14.125 1.5625 C-9.51569819 -0.74215091 -5.06769661 -0.49779306 0 0 Z " fill="#848484" transform="translate(826,540)"/>
<path d="M0 0 C0 2.97 0 5.94 0 9 C5.28 9 10.56 9 16 9 C16 10.32 16 11.64 16 13 C9.4 13 2.8 13 -4 13 C-4 9.04 -4 5.08 -4 1 C-1 0 -1 0 0 0 Z " fill="#838383" transform="translate(949,559)"/>
<path d="M0 0 C0.99 0 1.98 0 3 0 C3 30.36 3 60.72 3 92 C2.67 92 2.34 92 2 92 C1.67 62.63 1.34 33.26 1 3 C0.01 3.66 -0.98 4.32 -2 5 C-1.34 3.35 -0.68 1.7 0 0 Z " fill="#90BA77" transform="translate(441,455)"/>
<path d="M0 0 C0.33 0 0.66 0 1 0 C1.01981934 0.56509277 1.03963867 1.13018555 1.06005859 1.71240234 C1.15518236 4.26707997 1.26491058 6.82092541 1.375 9.375 C1.4059375 10.26445313 1.436875 11.15390625 1.46875 12.0703125 C1.50742187 12.92109375 1.54609375 13.771875 1.5859375 14.6484375 C1.6173584 15.43395996 1.6487793 16.21948242 1.68115234 17.02880859 C1.8399465 19.23002939 1.8399465 19.23002939 4 21 C3.82681928 24.29043376 3.22633155 25.73716336 1.0625 28.25 C-2.30090976 31.10380222 -4.28073092 31.11301476 -8.625 31.0625 C-9.62789062 31.05347656 -10.63078125 31.04445313 -11.6640625 31.03515625 C-12.43492187 31.02355469 -13.20578125 31.01195312 -14 31 C-14 30.67 -14 30.34 -14 30 C-10.7 30 -7.4 30 -4 30 C-4.33 28.68 -4.66 27.36 -5 26 C-4.37609375 25.48953125 -3.7521875 24.9790625 -3.109375 24.453125 C0.32786394 20.45574342 -0.32124665 15.85385097 -0.25 10.75 C-0.22035156 9.71875 -0.19070313 8.6875 -0.16015625 7.625 C-0.08955222 5.08325505 -0.03680991 2.54242217 0 0 Z " fill="#828282" transform="translate(795,541)"/>
<path d="M0 0 C5.94 0 11.88 0 18 0 C18 0.99 18 1.98 18 3 C13.05 3 8.1 3 3 3 C3 6.3 3 9.6 3 13 C2.01 12.34 1.02 11.68 0 11 C-0.41620943 7.30406029 -0.13007474 3.72880913 0 0 Z " fill="#787878" transform="translate(691,541)"/>
<path d="M0 0 C0.99 0 1.98 0 3 0 C3 8.58 3 17.16 3 26 C2.01 26 1.02 26 0 26 C0 17.42 0 8.84 0 0 Z " fill="#707070" transform="translate(720,541)"/>
<path d="M0 0 C1.14275391 -0.00386719 1.14275391 -0.00386719 2.30859375 -0.0078125 C4.51565859 0.12223985 6.44219276 0.51643801 8.5625 1.125 C8.5625 2.445 8.5625 3.765 8.5625 5.125 C7.22445313 5.09019531 7.22445313 5.09019531 5.859375 5.0546875 C4.10367187 5.02761719 4.10367187 5.02761719 2.3125 5 C1.15234375 4.97679687 -0.0078125 4.95359375 -1.203125 4.9296875 C-4.26536046 5.1146051 -5.87952751 5.51676977 -8.4375 7.125 C-8.4375 4.125 -8.4375 4.125 -7.4375 1.125 C-4.64001159 0.19250386 -2.89429119 -0.00976152 0 0 Z " fill="#818181" transform="translate(1025.4375,539.875)"/>
<path d="M0 0 C0.33 0 0.66 0 1 0 C1.33 6.93 1.66 13.86 2 21 C2.99 20.34 3.98 19.68 5 19 C5 22.96 5 26.92 5 31 C3.35 31 1.7 31 0 31 C0 20.77 0 10.54 0 0 Z " fill="#9D9D9D" transform="translate(607,541)"/>
<path d="M0 0 C1.32 0 2.64 0 4 0 C3.91308261 2.77236494 3.80622639 5.54147078 3.6875 8.3125 C3.66494141 9.09818359 3.64238281 9.88386719 3.61914062 10.69335938 C3.58369141 11.45068359 3.54824219 12.20800781 3.51171875 12.98828125 C3.48553467 13.68477783 3.45935059 14.38127441 3.43237305 15.09887695 C3 17 3 17 0 20 C0 13.4 0 6.8 0 0 Z " fill="#6D6D6D" transform="translate(914,541)"/>
<path d="M0 0 C18.15 0 36.3 0 55 0 C55 1.32 55 2.64 55 4 C54.34 3.34 53.68 2.68 53 2 C50.65590429 1.66883262 50.65590429 1.66883262 47.90771484 1.68115234 C46.84676605 1.66128265 45.78581726 1.64141296 44.69271851 1.62094116 C42.96923691 1.60361435 42.96923691 1.60361435 41.2109375 1.5859375 C40.03737701 1.56657135 38.86381653 1.5472052 37.6546936 1.5272522 C33.89487039 1.46732336 30.13501677 1.42101754 26.375 1.375 C23.83071558 1.3368325 21.28644425 1.29778151 18.7421875 1.2578125 C12.49490759 1.16161095 6.24754928 1.07660262 0 1 C0 0.67 0 0.34 0 0 Z " fill="#7CB4D1" transform="translate(485,387)"/>
<path d="M0 0 C0.33 0 0.66 0 1 0 C1.33 3.3 1.66 6.6 2 10 C2.33 10 2.66 10 3 10 C3 15.61 3 21.22 3 27 C2.01 27 1.02 27 0 27 C0 18.09 0 9.18 0 0 Z " fill="#636364" transform="translate(667,544)"/>
<path d="M0 0 C3.3 0 6.6 0 10 0 C10 2.97 10 5.94 10 9 C9.01 9 8.02 9 7 9 C7 7.35 7 5.7 7 4 C4.69 4 2.38 4 0 4 C0 2.68 0 1.36 0 0 Z " fill="#737272" transform="translate(1025,555)"/>
<path d="M0 0 C4.29 0 8.58 0 13 0 C13 1.32 13 2.64 13 4 C8.38 4 3.76 4 -1 4 C-0.67 2.68 -0.34 1.36 0 0 Z " fill="#80807F" transform="translate(950,554)"/>
<path d="M0 0 C0.33 0 0.66 0 1 0 C1 4.95 1 9.9 1 15 C-0.98 15.66 -2.96 16.32 -5 17 C-4.67 12.71 -4.34 8.42 -4 4 C-3.01 5.32 -2.02 6.64 -1 8 C-0.67 5.36 -0.34 2.72 0 0 Z " fill="#8B8B8A" transform="translate(1035,555)"/>
<path d="M0 0 C0.99 0 1.98 0 3 0 C3 4.29 3 8.58 3 13 C2.67 13 2.34 13 2 13 C1.67 14.98 1.34 16.96 1 19 C0.67 19 0.34 19 0 19 C0 12.73 0 6.46 0 0 Z " fill="#6A6A6A" transform="translate(608,542)"/>
<path d="M0 0 C4.62 0 9.24 0 14 0 C14 0.99 14 1.98 14 3 C9.38 3 4.76 3 0 3 C0 2.01 0 1.02 0 0 Z " fill="#6E6E6E" transform="translate(695,568)"/>
<path d="M0 0 C0.33 0 0.66 0 1 0 C1.01981934 0.56509277 1.03963867 1.13018555 1.06005859 1.71240234 C1.15518236 4.26707997 1.26491058 6.82092541 1.375 9.375 C1.4059375 10.26445313 1.436875 11.15390625 1.46875 12.0703125 C1.50742187 12.92109375 1.54609375 13.771875 1.5859375 14.6484375 C1.6173584 15.43395996 1.6487793 16.21948242 1.68115234 17.02880859 C1.8399465 19.23002939 1.8399465 19.23002939 4 21 C3.67 21.99 3.34 22.98 3 24 C-0.0625 25.1875 -0.0625 25.1875 -3 26 C-2.67854004 25.44731445 -2.35708008 24.89462891 -2.02587891 24.32519531 C-0.85440218 21.66999675 -0.6868676 19.69020465 -0.5859375 16.796875 C-0.54726563 15.8171875 -0.50859375 14.8375 -0.46875 13.828125 C-0.4378125 12.81234375 -0.406875 11.7965625 -0.375 10.75 C-0.33632813 9.71875 -0.29765625 8.6875 -0.2578125 7.625 C-0.16368326 5.0835106 -0.07805021 2.54202567 0 0 Z " fill="#878888" transform="translate(795,541)"/>
<path d="M0 0 C3.96 0 7.92 0 12 0 C12 1.32 12 2.64 12 4 C7.71 3.67 3.42 3.34 -1 3 C-0.67 2.01 -0.34 1.02 0 0 Z " fill="#7A7A7A" transform="translate(816,541)"/>
<path d="M0 0 C1.50433594 0.01353516 1.50433594 0.01353516 3.0390625 0.02734375 C3.80992188 0.03894531 4.58078125 0.05054688 5.375 0.0625 C5.375 1.0525 5.375 2.0425 5.375 3.0625 C1.085 3.0625 -3.205 3.0625 -7.625 3.0625 C-7.625 2.4025 -7.625 1.7425 -7.625 1.0625 C-4.98041621 -0.25979189 -2.94738699 -0.03427194 0 0 Z " fill="#696969" transform="translate(1110.625,553.9375)"/>
<path d="M0 0 C3.3 0 6.6 0 10 0 C9.67 1.32 9.34 2.64 9 4 C2.375 4.25 2.375 4.25 -1 2 C-0.67 1.34 -0.34 0.68 0 0 Z " fill="#707071" transform="translate(1021,568)"/>
<path d="M0 0 C0 0.33 0 0.66 0 1 C-3.3 1.33 -6.6 1.66 -10 2 C-10.33 3.32 -10.66 4.64 -11 6 C-11.99 6 -12.98 6 -14 6 C-14.66 7.65 -15.32 9.3 -16 11 C-16.33 11 -16.66 11 -17 11 C-16.77641602 7.12454437 -16.52142114 4.67784748 -14.125 1.5625 C-9.48648191 -0.75675904 -5.09206658 -0.32104098 0 0 Z " fill="#999A9A" transform="translate(826,540)"/>
<path d="M0 0 C0 0.99 0 1.98 0 3 C-3.96 3 -7.92 3 -12 3 C-12 2.34 -12 1.68 -12 1 C-8.0186217 -0.3271261 -4.14954773 -0.06915913 0 0 Z " fill="#757475" transform="translate(738,568)"/>
<path d="M0 0 C2.97 0 5.94 0 9 0 C9 0.99 9 1.98 9 3 C6.03 3 3.06 3 0 3 C0 2.01 0 1.02 0 0 Z " fill="#757576" transform="translate(955,568)"/>
<path d="M0 0 C3.96 0 7.92 0 12 0 C12 0.66 12 1.32 12 2 C6.06 2.495 6.06 2.495 0 3 C0 2.01 0 1.02 0 0 Z " fill="#686868" transform="translate(751,555)"/>
<path d="M0 0 C0.99 0.33 1.98 0.66 3 1 C3 2.32 3 3.64 3 5 C3.99 5.33 4.98 5.66 6 6 C3.69 5.67 1.38 5.34 -1 5 C-0.67 3.35 -0.34 1.7 0 0 Z " fill="#909090" transform="translate(810,566)"/>
<path d="M0 0 C1.65 0 3.3 0 5 0 C5 0.99 5 1.98 5 3 C2.36 3 -0.28 3 -3 3 C-2.01 2.67 -1.02 2.34 0 2 C0 1.34 0 0.68 0 0 Z " fill="#818181" transform="translate(959,541)"/>
<path d="M0 0 C0.99 0 1.98 0 3 0 C3 2.64 3 5.28 3 8 C2.67 8 2.34 8 2 8 C1.67 6.35 1.34 4.7 1 3 C0.01 3.66 -0.98 4.32 -2 5 C-1.34 3.35 -0.68 1.7 0 0 Z " fill="#9FC789" transform="translate(441,455)"/>
</svg>
